# xmcd CD database file
#
# Track frame offsets:
#	150
#	7336
#	26607
#	31302
#	49610
#	54258
#	66667
#	70964
#	87619
#	91843
#	109574
#	113092
#	125461
#	127944
#	148246
#	150716
#	167172
#	169607
#	184081
#	186393
#	201224
#
# Disc length: 2776 seconds
#
# Revision: 0
# Processed by: cddbd v1.5.1PL0 Copyright (c) Steve Scherf et al.
# Submitted via: CDex 1.51
#
DISCID=2c0ad615
DTITLE=Ambiental - New Age Relajación
DYEAR=2002
DGENRE=New Age
TTITLE0=Ambient 1
TTITLE1=Angeles de Agua
TTITLE2=Ambient 2
TTITLE3=Melodía de Hielo
TTITLE4=Ambient 3
TTITLE5=Ventana al Desierto
TTITLE6=Ambient 4
TTITLE7=Campanas
TTITLE8=Ambient 5
TTITLE9=Rio Rojo
TTITLE10=Ambient 6
TTITLE11=Mar de Flautas
TTITLE12=Ambient 7
TTITLE13=La Caverna
TTITLE14=Ambient 8
TTITLE15=Lluvia azul
TTITLE16=Ambient 9
TTITLE17=Oriente Fluvial
TTITLE18=Ambient 10
TTITLE19=Alma Celta
TTITLE20=Ambient 11
EXTD=YEAR: 2002
EXTT0=
EXTT1=
EXTT2=
EXTT3=
EXTT4=
EXTT5=
EXTT6=
EXTT7=
EXTT8=
EXTT9=
EXTT10=
EXTT11=
EXTT12=
EXTT13=
EXTT14=
EXTT15=
EXTT16=
EXTT17=
EXTT18=
EXTT19=
EXTT20=
PLAYORDER=
